<svg width="232" height="24" viewBox="0 0 232 24" fill="none" xmlns="http://www.w3.org/2000/svg">
<rect x="0.5" y="0.5" width="37.4" height="23" rx="1.5" fill="white" stroke="#D9D9D9"/>
<path d="M33.8553 9.09796C33.8356 9.1802 33.8165 9.26277 33.7954 9.34468C33.598 10.1131 32.9671 10.5773 32.1411 10.5562C31.8263 10.5483 31.5184 10.5013 31.2157 10.402C31.1138 10.3684 30.9855 10.4135 30.8693 10.4237C30.7157 10.4372 30.5618 10.4631 30.4081 10.4635C28.963 10.4664 27.5179 10.4654 26.0731 10.4654H25.9152C25.9514 10.2269 25.9853 10.0023 26.0182 9.78516H27.833C27.8219 9.79897 27.8307 9.79305 27.8307 9.78713C27.8232 9.34304 27.8186 8.89894 27.8038 8.45485C27.8011 8.37228 27.7656 8.28807 27.733 8.20945C27.6166 7.9272 27.4038 7.78246 27.0968 7.78114C26.856 7.78016 26.6152 7.78114 26.3744 7.78082C26.331 7.78082 26.2876 7.78082 26.2304 7.78082C26.2623 7.55712 26.2892 7.35185 26.3235 7.14757C26.3277 7.1229 26.3695 7.0854 26.3932 7.08606C26.8008 7.09362 27.2133 7.06994 27.6143 7.12652C28.215 7.21139 28.6485 7.69167 28.7531 8.33149C28.7916 8.56768 28.7946 8.81013 28.8028 9.05027C28.8107 9.28218 28.8045 9.51443 28.8045 9.75522C28.8479 9.75851 28.8831 9.76345 28.9183 9.76345C29.4407 9.76411 29.9634 9.76049 30.4858 9.76641C30.5933 9.76772 30.6345 9.72035 30.6453 9.6289C30.6529 9.56443 30.6539 9.49864 30.6542 9.4335C30.6549 8.99665 30.6542 8.55979 30.6549 8.12326C30.6558 7.61502 30.8634 7.3206 31.3496 7.16928C31.5421 7.10941 31.7454 7.08211 31.944 7.04C32.0829 7.04 32.2217 7.04 32.3605 7.04C32.3918 7.04822 32.4223 7.05974 32.4539 7.06401C33.1191 7.15316 33.605 7.57752 33.7819 8.22754C33.8096 8.32886 33.8309 8.43215 33.855 8.53446V9.09796H33.8553ZM31.5509 7.9828C31.5611 8.11076 31.5766 8.21866 31.5773 8.32689C31.5802 8.73874 31.5822 9.1506 31.5756 9.56245C31.574 9.66377 31.6101 9.70095 31.7029 9.7072C31.8654 9.71805 32.0276 9.73943 32.1901 9.74272C32.5421 9.74963 32.7724 9.58153 32.8674 9.24369C32.9543 8.93546 32.9523 8.62229 32.8704 8.31307C32.8214 8.1282 32.7207 7.96733 32.5319 7.90615C32.1911 7.79595 31.8602 7.85911 31.5506 7.9828H31.5509Z" fill="black"/>
<path d="M25.5728 7.09954C25.5376 7.32883 25.5041 7.54989 25.4675 7.7874C25.4166 7.7874 25.3689 7.7874 25.3212 7.7874C24.7086 7.7874 24.0964 7.78707 23.4839 7.78805C23.3984 7.78805 23.3119 7.78937 23.2273 7.7999C22.977 7.83115 22.8444 7.9874 22.8559 8.23017C22.8675 8.47031 23.0171 8.62953 23.2592 8.63611C23.5695 8.64466 23.88 8.63578 24.1899 8.64236C24.3277 8.64532 24.4682 8.65585 24.6024 8.68446C25.1159 8.79434 25.4419 9.20521 25.4343 9.73088C25.4323 9.86444 25.4185 10.001 25.3863 10.1302C25.282 10.5506 24.9744 10.7533 24.5764 10.8316C24.3738 10.8714 24.1636 10.8911 23.957 10.8918C22.5974 10.8947 21.2378 10.8974 19.8782 10.8842C19.0305 10.876 18.4693 10.3253 18.4213 9.48022C18.3976 9.06474 18.3782 8.64762 18.494 8.23971C18.6854 7.56535 19.2121 7.15481 19.9141 7.14231C20.342 7.13474 20.7703 7.14099 21.2079 7.14099C21.1733 7.37554 21.1404 7.60055 21.1052 7.84069C20.9404 7.84069 20.7782 7.84036 20.6161 7.84069C20.4569 7.84102 20.2973 7.83773 20.1384 7.84431C19.8506 7.85615 19.6358 7.99431 19.5269 8.25879C19.466 8.40682 19.4243 8.57229 19.419 8.73118C19.4094 9.02757 19.4058 9.32889 19.4502 9.62035C19.5016 9.95753 19.7331 10.1575 20.072 10.1779C20.4707 10.202 20.8713 10.1957 21.2714 10.197C22.149 10.2 23.027 10.2003 23.9047 10.2003C23.9698 10.2003 24.0359 10.199 24.0994 10.1868C24.3649 10.1371 24.5169 9.94109 24.4951 9.68318C24.4734 9.42758 24.2905 9.26212 24.0175 9.25751C23.6339 9.25093 23.2497 9.25948 22.8668 9.23975C22.4125 9.21606 22.0832 8.96046 21.9648 8.5713C21.8276 8.12063 21.953 7.64594 22.2809 7.39034C22.5424 7.18639 22.8523 7.10217 23.1734 7.09625C23.957 7.08211 24.7409 7.08869 25.5248 7.08737C25.5363 7.08737 25.5481 7.09296 25.5728 7.09921V7.09954Z" fill="black"/>
<path d="M33.8553 16.84C33.5507 16.7847 33.2467 16.7245 32.9408 16.6778C32.8559 16.665 32.7635 16.686 32.6766 16.7022C32.3056 16.7709 31.9345 16.815 31.5615 16.7166C31.1184 16.5995 30.8667 16.288 30.8516 15.8367C30.8358 15.3689 31.0519 15.0337 31.5039 14.9074C31.7713 14.8327 32.0559 14.8136 32.3342 14.7876C32.5237 14.7702 32.7161 14.7843 32.9049 14.7843C32.9964 14.3958 32.8178 14.1537 32.4316 14.1468C32.0065 14.1392 31.5986 14.235 31.1993 14.3725C31.1615 14.3856 31.123 14.3965 31.073 14.412C31.0388 14.1797 31.0055 13.9557 30.9713 13.7234C31.6315 13.5119 32.2875 13.3211 32.9868 13.4609C33.4971 13.5629 33.7678 13.8567 33.8333 14.3692C33.8372 14.4011 33.8477 14.432 33.855 14.4633V16.8397L33.8553 16.84ZM32.5678 15.3462C32.5668 15.3413 32.5658 15.3363 32.5648 15.3311C32.3888 15.3557 32.2079 15.3626 32.0381 15.41C31.8625 15.4594 31.7806 15.6245 31.7967 15.8163C31.8105 15.9804 31.9079 16.1137 32.0852 16.1301C32.2674 16.1472 32.4576 16.1321 32.6385 16.0998C32.9418 16.0459 32.9418 16.0354 32.9388 15.7245C32.9378 15.6041 32.9691 15.4452 32.9063 15.3755C32.851 15.314 32.6849 15.3521 32.5678 15.3465V15.3462Z" fill="black"/>
<path d="M23.1389 16.7328H22.178V16.5824C22.178 15.9699 22.178 15.3574 22.1776 14.7452C22.1776 14.6801 22.1776 14.6143 22.1697 14.5495C22.1477 14.3643 22.0273 14.2383 21.8467 14.2185C21.627 14.1948 21.4168 14.232 21.2424 14.3222C21.2487 14.5919 21.2585 14.8462 21.2598 15.1008C21.2625 15.5988 21.2605 16.0972 21.2605 16.5953V16.7331H20.3019V16.5923C20.3019 15.9798 20.2963 15.3673 20.3039 14.7551C20.3098 14.2781 20.096 14.1544 19.6496 14.2327C19.3818 14.2797 19.3831 14.2866 19.3831 14.5544C19.3831 15.2281 19.3831 15.9018 19.3831 16.5755V16.7288H18.4078V16.5811C18.4078 15.789 18.4078 14.9968 18.4078 14.2047C18.4078 13.8031 18.5101 13.6675 18.8992 13.5609C19.3805 13.4294 19.8684 13.3649 20.3634 13.4636C20.497 13.4902 20.6269 13.5478 20.7493 13.6096C20.8148 13.6425 20.8608 13.6494 20.9276 13.6215C21.3993 13.4228 21.8868 13.3619 22.3878 13.4843C22.8277 13.5919 23.103 13.9011 23.1191 14.3521C23.1418 14.9801 23.1339 15.609 23.1389 16.2377C23.1402 16.4002 23.1389 16.5627 23.1389 16.7331V16.7328Z" fill="black"/>
<path d="M29.339 13.559C29.339 13.5024 29.339 13.4593 29.339 13.4159C29.339 13.0159 29.34 12.6158 29.338 12.2162C29.338 12.1523 29.3463 12.1079 29.4219 12.0958C29.7114 12.0494 30.0002 11.9991 30.3075 11.9471V12.0849C30.3075 13.3991 30.3075 14.7133 30.3075 16.0271C30.3075 16.4035 30.2249 16.5186 29.8663 16.6288C29.3989 16.7726 28.9203 16.8074 28.4383 16.7357C27.7416 16.6321 27.2755 16.1074 27.2199 15.3755C27.1959 15.0613 27.2057 14.7485 27.2873 14.4403C27.4511 13.8218 27.8916 13.4547 28.5301 13.4419C28.7469 13.4376 28.965 13.4892 29.1821 13.5182C29.2288 13.5244 29.2742 13.5419 29.339 13.5593V13.559ZM29.339 15.1248V14.6478C29.339 14.3564 29.1917 14.1976 28.8969 14.1715C28.5551 14.1412 28.3061 14.307 28.2193 14.6376C28.139 14.9426 28.1396 15.2518 28.2212 15.5564C28.312 15.8949 28.5439 16.0656 28.8939 16.0591C28.9992 16.0571 29.1038 16.0337 29.2091 16.0258C29.3084 16.0183 29.3453 15.9768 29.3417 15.8712C29.3328 15.6229 29.3387 15.3738 29.3387 15.1251L29.339 15.1248Z" fill="black"/>
<path d="M25.7432 14.7853C25.7748 14.2952 25.6238 14.1337 25.1564 14.1468C24.7698 14.1577 24.3971 14.2445 24.033 14.3705C23.9951 14.3837 23.9563 14.3952 23.9004 14.4129C23.8691 14.1939 23.8372 13.982 23.8112 13.7692C23.8089 13.7491 23.8392 13.7116 23.8616 13.7044C24.3872 13.5356 24.9175 13.3876 25.4784 13.4169C25.5639 13.4211 25.6498 13.43 25.734 13.4445C26.3653 13.5537 26.6643 13.9001 26.6692 14.5452C26.6752 15.2801 26.6709 16.0153 26.6706 16.7502C26.6706 16.7745 26.6679 16.7986 26.6659 16.8367C26.5584 16.8183 26.4544 16.8078 26.3541 16.7824C25.962 16.6828 25.5735 16.6627 25.1721 16.7489C24.8843 16.8104 24.5866 16.7897 24.3017 16.6913C23.9043 16.5541 23.6895 16.2584 23.6767 15.834C23.6639 15.4011 23.8524 15.0972 24.2392 14.934C24.503 14.8228 24.7833 14.7939 25.0659 14.7873C25.2893 14.782 25.5129 14.7863 25.7432 14.7863V14.7853ZM25.763 15.3705C25.4833 15.3705 25.2258 15.3538 24.9715 15.3755C24.7396 15.3952 24.607 15.5761 24.6182 15.7985C24.6287 16.0044 24.7777 16.1604 25.0113 16.1489C25.2448 16.1377 25.4761 16.0788 25.7074 16.036C25.7291 16.0321 25.7597 15.9936 25.7603 15.9706C25.7646 15.7712 25.7626 15.5719 25.7626 15.3705H25.763Z" fill="black"/>
<path d="M16.9015 7.04H4.47998V11.1559H16.9015V7.04Z" fill="#289BD7"/>
<path d="M16.9015 12.6507H4.47998V16.7666H16.9015V12.6507Z" fill="#85B840"/>
<rect x="48.9" y="0.5" width="37.4" height="23" rx="1.5" fill="white" stroke="#D9D9D9"/>
<path d="M54.7084 3.64356C55.0531 3.46606 55.4474 3.53774 55.8178 3.53091C56.666 3.5531 57.516 3.51043 58.3643 3.54798C58.7466 3.54627 59.0743 3.86373 59.1272 4.2341C59.3935 5.52443 59.6375 6.81987 59.8987 8.1136C59.4669 6.59799 58.3267 5.36057 56.9869 4.57375C56.2786 4.14877 55.4884 3.90128 54.7084 3.64356Z" fill="#F4A929"/>
<path d="M62.0884 3.53432C62.824 3.54285 63.558 3.53944 64.2919 3.53432C63.1756 6.202 62.1345 8.90041 60.9944 11.5579C60.2775 11.5357 59.5607 11.5459 58.8438 11.5459C58.2089 9.22641 57.6167 6.89495 56.9869 4.57374C58.3267 5.36056 59.4668 6.59798 59.8986 8.11359C59.9635 8.40716 60.0096 8.70755 60.0659 9.00453C60.735 7.17999 61.4125 5.35715 62.0884 3.53432Z" fill="#1B4DA2"/>
<path d="M65.1164 3.53074C65.8077 3.53586 66.4989 3.53586 67.1902 3.53074C66.7652 6.20355 66.318 8.87294 65.9033 11.5475C65.2154 11.5492 64.5276 11.5492 63.8381 11.5475C64.234 8.87123 64.7 6.20525 65.1164 3.53074Z" fill="#1B4DA2"/>
<path d="M69.1564 4.03432C70.3955 3.22019 72.0152 3.24409 73.3858 3.69468C73.3226 4.28693 73.2236 4.87406 73.1212 5.45948C72.3924 5.10959 71.5425 4.95428 70.7505 5.15738C70.3767 5.24613 70.0081 5.71038 70.3187 6.05856C70.957 6.71225 71.9623 6.86074 72.5631 7.57247C73.2595 8.25347 73.2339 9.40042 72.7594 10.1975C72.2576 11.0389 71.2916 11.4793 70.3511 11.6056C69.2878 11.7165 68.1801 11.6499 67.1833 11.2386C67.2892 10.6412 67.3779 10.0405 67.4854 9.44309C68.3474 9.88856 69.3475 10.1121 70.3085 9.8988C70.6344 9.78957 70.9707 9.5216 70.9417 9.13928C70.8341 8.68358 70.3579 8.489 69.9876 8.28248C69.269 7.92918 68.4959 7.49566 68.1733 6.71908C67.7722 5.73768 68.303 4.58903 69.1564 4.03432Z" fill="#1B4DA2"/>
<path d="M75.9543 4.35169C76.0925 3.98303 76.3656 3.58193 76.7974 3.55975C77.4324 3.51537 78.0707 3.55292 78.7056 3.54097C79.274 6.21037 79.8235 8.88147 80.3834 11.5509C79.745 11.5526 79.1067 11.5526 78.4684 11.5543C78.3779 11.1532 78.2926 10.7504 78.2106 10.3459C77.3248 10.3459 76.4407 10.3476 75.5566 10.3425C75.415 10.747 75.2682 11.1515 75.1163 11.5526C74.3926 11.5526 73.6689 11.5526 72.9453 11.5543C73.9454 9.15284 74.9558 6.75483 75.9543 4.35169Z" fill="#1B4DA2"/>
<path d="M76.1592 8.69386C76.545 7.70222 76.8607 6.68157 77.2925 5.70871C77.4205 6.71571 77.6714 7.70222 77.878 8.69556C77.3045 8.69556 76.7327 8.69556 76.1592 8.69386Z" fill="white"/>
<path d="M67.9718 16.929C68.7433 16.9426 69.7366 16.8129 70.2282 17.5588C70.747 18.489 70.363 19.8424 69.3987 20.3254C68.7808 20.6549 68.0538 20.5132 67.3847 20.5439C67.5895 19.3406 67.7482 18.1288 67.9718 16.929Z" fill="#161314"/>
<path d="M71.4091 16.9359C72.0184 16.9359 72.6277 16.9342 73.2371 16.9393C73.2115 17.0468 73.162 17.2602 73.1364 17.3677C72.6926 17.3899 72.2488 17.3745 71.8051 17.3779C71.7624 17.738 71.7061 18.0965 71.631 18.4498C71.9775 18.4515 72.3239 18.4515 72.6721 18.4532C72.6721 18.5675 72.6687 18.7962 72.6687 18.9106C72.3052 18.9089 71.9433 18.9072 71.5798 18.9038C71.5047 19.3151 71.4347 19.7264 71.3681 20.1395C71.8392 20.1463 72.3103 20.1446 72.7831 20.1463C72.7609 20.2385 72.7182 20.4211 72.696 20.5133C72.0799 20.5815 71.4569 20.5286 70.8373 20.544C71.0183 19.339 71.2043 18.1357 71.4091 16.9359Z" fill="#181415"/>
<path d="M73.2849 20.5525C73.4845 19.3475 73.6689 18.1391 73.86 16.9324C74.3789 16.9546 74.949 16.8505 75.4166 17.1338C75.9594 17.5622 75.6931 18.4309 75.1009 18.6733C75.7648 18.9447 75.7511 19.9295 75.1913 20.2964C74.6366 20.6822 73.9164 20.5012 73.2849 20.5525Z" fill="#191617"/>
<path d="M76.6506 16.9563C76.7735 16.9478 77.0193 16.9307 77.1439 16.9222C76.9493 18.134 76.7735 19.3475 76.5619 20.5559C76.4424 20.5525 76.2017 20.5457 76.0823 20.5423C76.3007 19.3526 76.468 18.1528 76.6506 16.9563Z" fill="#181415"/>
<path d="M77.772 16.9478C78.6305 16.9171 79.489 16.9461 80.3492 16.9359C80.3492 17.0468 80.3492 17.2687 80.3509 17.3796C79.9857 17.3779 79.6204 17.3762 79.2552 17.3728C79.0503 18.4225 78.936 19.4875 78.7329 20.5355C78.6151 20.544 78.3813 20.5594 78.2652 20.5662C78.4308 19.5029 78.5861 18.4378 78.7704 17.3779C78.4052 17.3779 78.0399 17.3762 77.6747 17.3745C77.6986 17.267 77.7481 17.0537 77.772 16.9478Z" fill="#171314"/>
<path d="M68.3744 17.3641C68.912 17.3573 69.5948 17.3385 69.8627 17.9137C70.0726 18.5964 69.9361 19.4618 69.308 19.885C68.9086 20.1871 68.3864 20.1445 67.9153 20.153C68.086 19.2262 68.1986 18.2909 68.3744 17.3641Z" fill="white"/>
<path d="M74.2426 17.3592C74.6215 17.3438 75.2308 17.2926 75.2495 17.8268C75.2427 18.4259 74.5549 18.4993 74.0992 18.4925C74.1453 18.1135 74.1965 17.7381 74.2426 17.3592Z" fill="white"/>
<path d="M74.0255 18.8747C74.3754 18.9123 74.8857 18.8031 75.0683 19.1939C75.2612 19.5011 75.0871 19.9312 74.7662 20.0746C74.4624 20.1924 74.1279 20.1634 73.8087 20.1856C73.8872 19.7486 73.9657 19.3134 74.0255 18.8747Z" fill="white"/>
<path d="M97.3 1.6C97.3 0.988737 97.7905 0.5 98.3873 0.5H133.613C134.209 0.5 134.7 0.988735 134.7 1.6V22.4C134.7 23.0113 134.209 23.5 133.613 23.5H98.3873C97.7905 23.5 97.3 23.0113 97.3 22.4V1.6Z" fill="white" stroke="#D9D9D9"/>
<path d="M108.668 15.244H107.374L105.551 10.6698L104.602 15.244H103.308L104.717 8.43616H106.016L107.844 12.9917L108.788 8.43616H110.077L108.668 15.244Z" fill="#1B1D21"/>
<path d="M114.507 13.7394H111.832L111.021 15.244H109.594L113.411 8.43616H114.953L116.049 15.244H114.732L114.507 13.7394ZM114.336 12.6063L113.945 9.86645L112.315 12.6063H114.336Z" fill="#1B1D21"/>
<path d="M118.287 15.244H116.897L118.31 8.43616H121.055C121.543 8.43616 121.928 8.49498 122.21 8.61263C122.496 8.72717 122.722 8.91912 122.887 9.18846C123.053 9.4547 123.136 9.77358 123.136 10.1451C123.136 10.4887 123.07 10.8231 122.938 11.1481C122.806 11.4732 122.643 11.7333 122.45 11.9283C122.26 12.1233 122.054 12.2719 121.833 12.3741C121.612 12.4732 121.314 12.549 120.94 12.6017C120.722 12.6326 120.313 12.6481 119.715 12.6481H118.826L118.287 15.244ZM119.056 11.5196H119.485C120.218 11.5196 120.708 11.4732 120.953 11.3803C121.199 11.2875 121.392 11.1389 121.534 10.9345C121.675 10.7302 121.745 10.5058 121.745 10.2612C121.745 10.0971 121.709 9.96243 121.635 9.85717C121.564 9.75191 121.463 9.67606 121.331 9.62962C121.202 9.58009 120.912 9.55532 120.461 9.55532H119.466L119.056 11.5196Z" fill="#1B1D21"/>
<path d="M123.403 13.0382L124.725 12.9685C124.743 13.3926 124.815 13.679 124.941 13.8276C125.144 14.0691 125.518 14.1898 126.065 14.1898C126.519 14.1898 126.847 14.1078 127.05 13.9437C127.253 13.7796 127.354 13.5815 127.354 13.3493C127.354 13.1481 127.271 12.9778 127.105 12.8385C126.989 12.7363 126.668 12.5707 126.143 12.3416C125.621 12.1125 125.239 11.9221 124.996 11.7704C124.757 11.6156 124.568 11.4159 124.43 11.1714C124.292 10.9268 124.223 10.6404 124.223 10.3123C124.223 9.73952 124.428 9.26431 124.84 8.88661C125.251 8.50892 125.847 8.32007 126.626 8.32007C127.418 8.32007 128.031 8.50737 128.464 8.88197C128.9 9.25657 129.139 9.755 129.182 10.3773L127.851 10.4376C127.817 10.1126 127.701 9.86336 127.501 9.68999C127.302 9.51662 127.007 9.42994 126.617 9.42994C126.233 9.42994 125.959 9.49805 125.793 9.63426C125.63 9.77048 125.549 9.9423 125.549 10.1497C125.549 10.3448 125.624 10.5058 125.775 10.6327C125.925 10.7627 126.258 10.9407 126.774 11.1667C127.55 11.5042 128.045 11.7782 128.256 11.9887C128.573 12.2983 128.731 12.6961 128.731 13.1821C128.731 13.7827 128.494 14.2966 128.022 14.7239C127.552 15.148 126.897 15.3601 126.055 15.3601C125.475 15.3601 124.972 15.2625 124.545 15.0675C124.121 14.8694 123.822 14.5954 123.647 14.2456C123.472 13.8957 123.391 13.4933 123.403 13.0382Z" fill="#1B1D21"/>
<rect x="145.7" y="0.5" width="37.4" height="23" rx="1.5" fill="white" stroke="#D9D9D9"/>
<path d="M169.08 4.73799C168.659 3.88676 167.76 3.45515 166.405 3.45515H161.655L159.542 13.4491L161.915 12.0356L162.417 9.68344H164.938C165.194 9.68344 165.428 9.69907 165.636 9.73006L165.757 9.74821L168.151 8.32242L168.186 8.29199C168.204 8.27664 168.222 8.26128 168.237 8.2476C168.752 7.77941 169.091 7.17414 169.241 6.45106C169.381 5.81341 169.326 5.23689 169.079 4.73771L169.08 4.73799ZM167.124 6.47758C167.005 7.04432 166.717 7.42401 166.241 7.63814C165.924 7.7822 165.488 7.85535 164.945 7.85535H162.804L163.339 5.31841H165.576C166.275 5.31841 166.62 5.40915 166.782 5.48397C167.017 5.5948 167.268 5.80782 167.124 6.4773L167.124 6.47758Z" fill="url(#paint0_linear_0_970)"/>
<path d="M168.445 9.18035L166.648 10.253L166.664 10.2921C166.742 10.4763 166.75 10.7159 166.69 11.0009C166.605 11.3839 166.442 11.7005 166.19 11.9677C165.79 12.3918 165.227 12.5981 164.469 12.5981H162.717L159.581 14.4692H164.197C165.633 14.4692 166.791 14.0314 167.638 13.1696C168.212 12.5906 168.581 11.9309 168.733 11.2092C168.903 10.4155 168.82 9.75463 168.487 9.24484L168.445 9.18007V9.18035Z" fill="url(#paint1_linear_0_970)"/>
<path d="M154.8 17.014H155.592C156.184 17.014 156.563 17.2365 156.563 17.7262C156.563 18.0333 156.402 18.2781 156.109 18.3672V18.385C156.487 18.4473 156.741 18.6877 156.741 19.0931C156.741 19.6584 156.313 19.9479 155.65 19.9479H154.8V17.014ZM155.512 18.3049C156.113 18.3049 156.358 18.0913 156.358 17.7485C156.358 17.3345 156.073 17.1832 155.535 17.1832H155.005V18.3049H155.512H155.512ZM155.597 19.7784C156.18 19.7784 156.541 19.5649 156.541 19.0972C156.541 18.6743 156.198 18.4741 155.597 18.4741H155.005V19.7784H155.597H155.597Z" fill="#EA212F"/>
<path d="M157.173 18.8837C157.173 18.1846 157.627 17.7574 158.103 17.7574C158.611 17.7574 158.922 18.1182 158.922 18.7458C158.922 18.7991 158.922 18.8527 158.913 18.906H157.373C157.382 19.4446 157.698 19.8321 158.179 19.8321C158.41 19.8321 158.593 19.7564 158.753 19.6405L158.833 19.7919C158.664 19.8943 158.473 20.001 158.161 20.001C157.614 20.001 157.173 19.5825 157.173 18.8834V18.8837ZM158.735 18.7458C158.735 18.1983 158.49 17.9266 158.107 17.9266C157.724 17.9266 157.417 18.2337 157.373 18.7458H158.735Z" fill="#EA212F"/>
<path d="M159.501 17.8108H159.67L159.688 18.1402H159.701C159.92 17.9222 160.142 17.7574 160.436 17.7574C160.877 17.7574 161.081 18.0246 161.081 18.5766V19.9479H160.885V18.6034C160.885 18.1491 160.743 17.9356 160.396 17.9356C160.142 17.9356 159.959 18.069 159.697 18.3362V19.9479H159.501V17.8111L159.501 17.8108Z" fill="#EA212F"/>
<path d="M161.691 18.8837C161.691 18.1846 162.145 17.7574 162.622 17.7574C163.129 17.7574 163.441 18.1182 163.441 18.7458C163.441 18.7991 163.441 18.8527 163.432 18.906H161.892C161.901 19.4446 162.217 19.8321 162.697 19.8321C162.929 19.8321 163.111 19.7564 163.272 19.6405L163.352 19.7919C163.183 19.8943 162.991 20.001 162.679 20.001C162.132 20.001 161.691 19.5825 161.691 18.8834V18.8837ZM163.254 18.7458C163.254 18.1983 163.009 17.9266 162.626 17.9266C162.243 17.9266 161.936 18.2337 161.891 18.7458H163.254Z" fill="#EA212F"/>
<path d="M164.051 17.98H163.757V17.8286L164.051 17.8108V17.3345C164.051 16.9115 164.242 16.6935 164.58 16.6935C164.678 16.6935 164.794 16.7203 164.892 16.7647L164.839 16.9249C164.75 16.8805 164.661 16.8627 164.58 16.8627C164.354 16.8627 164.247 17.0363 164.247 17.3479V17.8108H164.741V17.98H164.247V19.9476H164.051V17.98Z" fill="#EA212F"/>
<path d="M165.114 17.1207C165.114 17.0093 165.195 16.9425 165.293 16.9425C165.391 16.9425 165.471 17.0093 165.471 17.1207C165.471 17.2231 165.391 17.2943 165.293 17.2943C165.195 17.2943 165.114 17.2231 165.114 17.1207ZM165.19 17.8108H165.386V19.9477H165.19V17.8108Z" fill="#EA212F"/>
<path d="M166.258 19.3558V17.9803H165.925V17.829L166.263 17.8111L166.29 17.1921H166.459V17.8111H167.078V17.9803H166.459V19.3737C166.459 19.6453 166.526 19.8276 166.82 19.8276C166.9 19.8276 167.011 19.7964 167.087 19.7609L167.14 19.9212C167.016 19.9656 166.882 20.0013 166.793 20.0013C166.379 20.0013 166.259 19.7386 166.259 19.3558H166.258Z" fill="#EA212F"/>
<path d="M167.558 17.036H168.475C169.121 17.036 169.602 17.2585 169.602 17.9353C169.602 18.612 169.121 18.8792 168.493 18.8792H168.074V19.9476H167.558V17.036H167.558ZM168.453 18.4651C168.885 18.4651 169.094 18.2915 169.094 17.9353C169.094 17.579 168.867 17.45 168.435 17.45H168.074V18.4651H168.453H168.453Z" fill="#EA212F"/>
<path d="M169.82 19.3603C169.82 18.8929 170.207 18.6481 171.107 18.5501C171.098 18.3186 171.004 18.1226 170.706 18.1226C170.492 18.1226 170.288 18.2206 170.092 18.3362L169.905 17.9934C170.145 17.8421 170.457 17.7083 170.804 17.7083C171.347 17.7083 171.618 18.0422 171.618 18.6523V19.9477H171.196L171.16 19.7073H171.142C170.946 19.872 170.723 20.001 170.465 20.001C170.082 20.001 169.82 19.7427 169.82 19.36L169.82 19.3603ZM171.107 19.3603V18.8706C170.51 18.9462 170.314 19.102 170.314 19.3203C170.314 19.5163 170.448 19.6009 170.63 19.6009C170.812 19.6009 170.942 19.5119 171.106 19.3605L171.107 19.3603Z" fill="#EA212F"/>
<path d="M172.095 20.8025L172.188 20.4019C172.228 20.4153 172.291 20.4332 172.344 20.4332C172.575 20.4332 172.709 20.2774 172.78 20.0591L172.821 19.9211L171.961 17.7619H172.482L172.86 18.8348C172.923 19.0264 172.985 19.2444 173.052 19.4493H173.07C173.123 19.2489 173.181 19.0308 173.235 18.8348L173.564 17.7619H174.058L173.266 20.0459C173.083 20.5401 172.856 20.8472 172.38 20.8472C172.26 20.8472 172.175 20.8293 172.095 20.8028V20.8025Z" fill="#EA212F"/>
<path d="M154.8 17.014H155.592C156.184 17.014 156.563 17.2365 156.563 17.7262C156.563 18.0333 156.402 18.2781 156.109 18.3672V18.385C156.487 18.4473 156.741 18.6877 156.741 19.0931C156.741 19.6584 156.313 19.9479 155.65 19.9479H154.8V17.014ZM155.512 18.3049C156.113 18.3049 156.358 18.0913 156.358 17.7485C156.358 17.3345 156.073 17.1832 155.535 17.1832H155.005V18.3049H155.512H155.512ZM155.597 19.7784C156.18 19.7784 156.541 19.5649 156.541 19.0972C156.541 18.6743 156.198 18.4741 155.597 18.4741H155.005V19.7784H155.597H155.597Z" fill="#EA212F"/>
<path d="M157.173 18.8837C157.173 18.1846 157.627 17.7574 158.103 17.7574C158.611 17.7574 158.922 18.1182 158.922 18.7458C158.922 18.7991 158.922 18.8527 158.913 18.906H157.373C157.382 19.4446 157.698 19.8321 158.179 19.8321C158.41 19.8321 158.593 19.7564 158.753 19.6405L158.833 19.7919C158.664 19.8943 158.473 20.001 158.161 20.001C157.614 20.001 157.173 19.5825 157.173 18.8834V18.8837ZM158.735 18.7458C158.735 18.1983 158.49 17.9266 158.107 17.9266C157.724 17.9266 157.417 18.2337 157.373 18.7458H158.735Z" fill="#EA212F"/>
<path d="M159.501 17.8108H159.67L159.688 18.1402H159.701C159.92 17.9222 160.142 17.7574 160.436 17.7574C160.877 17.7574 161.081 18.0246 161.081 18.5766V19.9479H160.885V18.6034C160.885 18.1491 160.743 17.9356 160.396 17.9356C160.142 17.9356 159.959 18.069 159.697 18.3362V19.9479H159.501V17.8111L159.501 17.8108Z" fill="#EA212F"/>
<path d="M161.691 18.8837C161.691 18.1846 162.145 17.7574 162.622 17.7574C163.129 17.7574 163.441 18.1182 163.441 18.7458C163.441 18.7991 163.441 18.8527 163.432 18.906H161.892C161.901 19.4446 162.217 19.8321 162.697 19.8321C162.929 19.8321 163.111 19.7564 163.272 19.6405L163.352 19.7919C163.183 19.8943 162.991 20.001 162.679 20.001C162.132 20.001 161.691 19.5825 161.691 18.8834V18.8837ZM163.254 18.7458C163.254 18.1983 163.009 17.9266 162.626 17.9266C162.243 17.9266 161.936 18.2337 161.891 18.7458H163.254Z" fill="#EA212F"/>
<path d="M164.051 17.98H163.757V17.8286L164.051 17.8108V17.3345C164.051 16.9115 164.242 16.6935 164.58 16.6935C164.678 16.6935 164.794 16.7203 164.892 16.7647L164.839 16.9249C164.75 16.8805 164.661 16.8627 164.58 16.8627C164.354 16.8627 164.247 17.0363 164.247 17.3479V17.8108H164.741V17.98H164.247V19.9476H164.051V17.98Z" fill="#EA212F"/>
<path d="M165.114 17.1207C165.114 17.0093 165.195 16.9425 165.293 16.9425C165.391 16.9425 165.471 17.0093 165.471 17.1207C165.471 17.2231 165.391 17.2943 165.293 17.2943C165.195 17.2943 165.114 17.2231 165.114 17.1207ZM165.19 17.8108H165.386V19.9477H165.19V17.8108Z" fill="#EA212F"/>
<path d="M166.258 19.3558V17.9803H165.925V17.829L166.263 17.8111L166.29 17.1921H166.459V17.8111H167.078V17.9803H166.459V19.3737C166.459 19.6453 166.526 19.8276 166.82 19.8276C166.9 19.8276 167.011 19.7964 167.087 19.7609L167.14 19.9212C167.016 19.9656 166.882 20.0013 166.793 20.0013C166.379 20.0013 166.259 19.7386 166.259 19.3558H166.258Z" fill="#EA212F"/>
<path d="M167.558 17.036H168.475C169.121 17.036 169.602 17.2585 169.602 17.9353C169.602 18.612 169.121 18.8792 168.493 18.8792H168.074V19.9476H167.558V17.036H167.558ZM168.453 18.4651C168.885 18.4651 169.094 18.2915 169.094 17.9353C169.094 17.579 168.867 17.45 168.435 17.45H168.074V18.4651H168.453H168.453Z" fill="#EA212F"/>
<path d="M169.82 19.3603C169.82 18.8929 170.207 18.6481 171.107 18.5501C171.098 18.3186 171.004 18.1226 170.706 18.1226C170.492 18.1226 170.288 18.2206 170.092 18.3362L169.905 17.9934C170.145 17.8421 170.457 17.7083 170.804 17.7083C171.347 17.7083 171.618 18.0422 171.618 18.6523V19.9477H171.196L171.16 19.7073H171.142C170.946 19.872 170.723 20.001 170.465 20.001C170.082 20.001 169.82 19.7427 169.82 19.36L169.82 19.3603ZM171.107 19.3603V18.8706C170.51 18.9462 170.314 19.102 170.314 19.3203C170.314 19.5163 170.448 19.6009 170.63 19.6009C170.812 19.6009 170.942 19.5119 171.106 19.3605L171.107 19.3603Z" fill="#EA212F"/>
<path d="M172.095 20.8025L172.188 20.4019C172.228 20.4153 172.291 20.4332 172.344 20.4332C172.575 20.4332 172.709 20.2774 172.78 20.0591L172.821 19.9211L171.961 17.7619H172.482L172.86 18.8348C172.923 19.0264 172.985 19.2444 173.052 19.4493H173.07C173.123 19.2489 173.181 19.0308 173.235 18.8348L173.564 17.7619H174.058L173.266 20.0459C173.083 20.5401 172.856 20.8472 172.38 20.8472C172.26 20.8472 172.175 20.8293 172.095 20.8028V20.8025Z" fill="#EA212F"/>
<rect x="194.1" y="0.5" width="37.4" height="23" rx="1.5" fill="white" stroke="#D9D9D9"/>
<g clip-path="url(#clip0_0_970)">
<path fill-rule="evenodd" clip-rule="evenodd" d="M207.732 7.68013C207.766 7.70827 207.771 7.7587 207.743 7.79276L205.355 10.6829C205.326 10.717 205.276 10.7218 205.242 10.6936C205.208 10.6655 205.203 10.6151 205.231 10.581L207.619 7.69084C207.647 7.65678 207.698 7.65198 207.732 7.68013Z" fill="#00B451"/>
<path fill-rule="evenodd" clip-rule="evenodd" d="M201.568 6.89576C201.61 6.88051 201.656 6.90176 201.671 6.94322L202.854 10.1597C202.87 10.2012 202.848 10.2471 202.807 10.2624C202.765 10.2777 202.719 10.2564 202.704 10.2149L201.521 6.99847C201.506 6.957 201.527 6.91102 201.568 6.89576Z" fill="#00B451"/>
<path fill-rule="evenodd" clip-rule="evenodd" d="M198.985 11.956C198.99 11.9122 199.03 11.881 199.074 11.8865L201.122 12.1411C201.166 12.1465 201.197 12.1865 201.191 12.2303C201.186 12.2742 201.146 12.3053 201.102 12.2999L199.054 12.0453C199.011 12.0398 198.979 11.9999 198.985 11.956Z" fill="#00B451"/>
<path fill-rule="evenodd" clip-rule="evenodd" d="M203.299 14.3614C203.343 14.3693 203.371 14.411 203.364 14.4545L203.084 15.9856C203.076 16.0291 203.034 16.0579 202.991 16.0499C202.947 16.042 202.918 16.0003 202.926 15.9569L203.206 14.4257C203.214 14.3823 203.256 14.3535 203.299 14.3614Z" fill="#00B451"/>
<path d="M207.871 7.92467C208.134 7.92467 208.348 7.71115 208.348 7.44776C208.348 7.18437 208.134 6.97085 207.871 6.97085C207.608 6.97085 207.394 7.18437 207.394 7.44776C207.394 7.71115 207.608 7.92467 207.871 7.92467Z" fill="url(#paint2_radial_0_970)"/>
<path d="M202.894 16.9107C203.157 16.9107 203.371 16.6972 203.371 16.4338C203.371 16.1704 203.157 15.9569 202.894 15.9569C202.631 15.9569 202.417 16.1704 202.417 16.4338C202.417 16.6972 202.631 16.9107 202.894 16.9107Z" fill="url(#paint3_radial_0_970)"/>
<path d="M201.46 7.20751C201.723 7.20751 201.937 6.99399 201.937 6.7306C201.937 6.46721 201.723 6.25368 201.46 6.25368C201.196 6.25368 200.983 6.46721 200.983 6.7306C200.983 6.99399 201.196 7.20751 201.46 7.20751Z" fill="url(#paint4_radial_0_970)"/>
<path d="M198.835 12.4105C199.098 12.4105 199.312 12.197 199.312 11.9336C199.312 11.6702 199.098 11.4567 198.835 11.4567C198.571 11.4567 198.358 11.6702 198.358 11.9336C198.358 12.197 198.571 12.4105 198.835 12.4105Z" fill="url(#paint5_radial_0_970)"/>
<path d="M210.413 14.2751C210.603 14.2465 210.7 13.9381 210.7 13.3464C210.7 12.8946 210.672 12.5791 210.614 12.3962C210.499 12.0376 210.259 11.8547 209.897 11.8547C209.488 11.8547 209.216 12.0591 209.083 12.4715C209.011 12.6902 208.975 13.0488 208.975 13.5508C208.975 13.9919 209.076 14.2321 209.28 14.2716L208.352 14.2751C208.531 14.2429 208.624 14.0421 208.624 13.6727V12.8946C208.624 12.2097 208.362 11.8691 207.839 11.8691C207.459 11.8691 207.197 12.0268 207.05 12.3388C206.953 12.5468 206.903 12.8552 206.903 13.2604C206.903 13.2962 206.903 13.3464 206.903 13.4181C206.903 13.4899 206.903 13.5436 206.903 13.5795C206.903 14.017 206.989 14.25 207.165 14.2787H206.272C206.473 14.2214 206.573 13.8735 206.573 13.2317C206.573 13.0882 206.569 12.9161 206.559 12.7153L206.541 12.3747C206.541 12.1488 206.458 12.0161 206.29 11.9802V11.9731C206.444 11.9408 206.645 11.8762 206.889 11.783C206.874 11.9515 206.863 12.2061 206.849 12.5468C207.046 11.9982 207.426 11.7256 207.986 11.7256C208.488 11.7256 208.814 11.9623 208.961 12.4392C209.137 11.9623 209.492 11.7256 210.03 11.7256C210.478 11.7256 210.783 11.8726 210.948 12.1667C211.062 12.3711 211.116 12.6902 211.116 13.1277C211.116 13.1815 211.116 13.2604 211.116 13.3643V13.5903C211.116 13.7695 211.127 13.9022 211.145 13.9847C211.181 14.1532 211.26 14.2465 211.382 14.2716L210.428 14.2751H210.413Z" fill="#00B451"/>
<path d="M211.367 14.3755H210.413C210.356 14.3755 210.309 14.3361 210.306 14.2823C210.302 14.2285 210.342 14.1819 210.395 14.1747C210.428 14.1712 210.593 14.1066 210.593 13.3464C210.593 12.9089 210.564 12.597 210.51 12.4249C210.41 12.1057 210.213 11.9551 209.893 11.9551C209.535 11.9551 209.302 12.1344 209.18 12.5002C209.112 12.7081 209.079 13.0596 209.079 13.5472C209.079 13.7624 209.108 14.1317 209.298 14.1712C209.348 14.1819 209.384 14.2214 209.384 14.268C209.384 14.3218 209.338 14.372 209.277 14.372H208.348C208.287 14.372 208.24 14.3253 208.24 14.2716C208.24 14.2214 208.28 14.1747 208.33 14.1676C208.488 14.1425 208.513 13.8448 208.513 13.6691V12.891C208.513 12.0627 208.126 11.9659 207.835 11.9659C207.498 11.9659 207.272 12.0986 207.143 12.3747C207.054 12.5683 207.007 12.8659 207.007 13.2532C207.007 13.289 207.007 13.3428 207.003 13.4145C207.003 13.4827 207.003 13.5365 207.003 13.5723C207.003 13.9309 207.068 14.1532 207.175 14.1747C207.229 14.1855 207.269 14.2321 207.261 14.2823C207.258 14.3325 207.211 14.372 207.154 14.372H206.261C206.2 14.372 206.153 14.3253 206.153 14.2716C206.153 14.2249 206.186 14.1819 206.232 14.1712C206.286 14.1568 206.455 14.0492 206.455 13.2245C206.455 13.0847 206.451 12.9125 206.44 12.7117L206.422 12.3711C206.422 12.1093 206.3 12.0806 206.254 12.0699C206.204 12.0591 206.171 12.0197 206.171 11.9731C206.171 11.9264 206.207 11.8762 206.254 11.8655C206.401 11.8332 206.598 11.7722 206.835 11.679C206.871 11.6647 206.906 11.6718 206.939 11.6898C206.967 11.7113 206.985 11.7436 206.982 11.7794C206.975 11.8583 206.971 11.9551 206.964 12.0735C207.201 11.7687 207.538 11.6109 207.975 11.6109C208.438 11.6109 208.768 11.7938 208.958 12.1595C209.173 11.7938 209.528 11.6109 210.019 11.6109C210.51 11.6109 210.847 11.7794 211.034 12.1093C211.156 12.328 211.217 12.6579 211.217 13.1169C211.217 13.1707 211.217 13.2496 211.217 13.3536V13.5795C211.217 13.7516 211.224 13.8771 211.242 13.9524C211.285 14.1389 211.367 14.1568 211.396 14.1604C211.446 14.1712 211.482 14.2106 211.482 14.2572C211.482 14.311 211.435 14.3612 211.374 14.3612L211.367 14.3755ZM210.679 14.1747H211.088C211.062 14.1281 211.041 14.0743 211.027 14.0062C211.005 13.9166 210.998 13.7803 210.998 13.5903V13.3643C210.998 13.2604 210.998 13.1851 210.998 13.1277C210.998 12.7081 210.944 12.3998 210.84 12.2133C210.733 12.0197 210.56 11.9013 210.313 11.8511C210.499 11.948 210.636 12.1237 210.715 12.3675C210.776 12.5611 210.808 12.8803 210.808 13.3464C210.808 13.7337 210.768 14.0062 210.682 14.1747H210.679ZM208.628 14.1747H208.986C208.864 13.9739 208.864 13.6727 208.864 13.5508C208.864 13.1026 208.893 12.7691 208.95 12.536C208.904 12.536 208.864 12.5073 208.85 12.4643C208.742 12.1237 208.545 11.9229 208.24 11.8511C208.509 11.9766 208.728 12.2707 208.728 12.8946V13.6727C208.728 13.8915 208.696 14.0564 208.635 14.1747H208.628ZM206.512 14.1747H206.878C206.777 13.9775 206.777 13.6978 206.777 13.5759C206.777 13.5401 206.777 13.4863 206.777 13.4145C206.777 13.3464 206.777 13.2926 206.777 13.2604C206.777 13.0237 206.792 12.8193 206.824 12.6472C206.824 12.6472 206.81 12.6472 206.806 12.6472C206.752 12.6364 206.716 12.5934 206.716 12.5432C206.727 12.2958 206.734 12.0914 206.745 11.9336C206.663 11.9623 206.584 11.9874 206.512 12.0089C206.577 12.0842 206.623 12.199 206.623 12.3711L206.641 12.7046C206.652 12.9054 206.655 13.0811 206.655 13.2245C206.655 13.6763 206.605 13.9883 206.505 14.1712L206.512 14.1747Z" fill="#00B451"/>
<path d="M214.118 14.2751C214.078 14.1712 214.032 14.0098 213.985 13.7839C213.784 14.1568 213.454 14.3397 212.999 14.3397C212.701 14.3397 212.443 14.2823 212.217 14.1712C211.941 14.0349 211.801 13.8413 211.801 13.5974C211.801 13.038 212.518 12.7619 213.956 12.7727V12.64C213.956 12.0842 213.669 11.8081 213.096 11.8081C212.855 11.8081 212.647 11.8547 212.461 11.9515C212.246 12.0627 212.124 12.2205 212.095 12.4177H212.077L211.909 11.9766C212.35 11.8081 212.766 11.7256 213.157 11.7256C213.63 11.7256 213.96 11.8404 214.15 12.0699C214.293 12.2456 214.365 12.5038 214.365 12.8552C214.365 12.9233 214.354 13.1277 214.333 13.4683C214.318 13.7014 214.322 13.8735 214.351 13.9811C214.39 14.1317 214.473 14.2249 214.605 14.2644V14.2787H214.114L214.118 14.2751ZM213.956 12.8444H213.741C212.759 12.8444 212.271 13.0954 212.271 13.601C212.271 13.8054 212.343 13.9668 212.49 14.0851C212.629 14.2034 212.812 14.2608 213.035 14.2608C213.39 14.2608 213.641 14.1461 213.788 13.9201C213.902 13.7444 213.96 13.4791 213.96 13.1277V12.8444H213.956Z" fill="#00B451"/>
<path d="M213.002 14.4401H212.995C212.683 14.4401 212.404 14.3791 212.163 14.2608C211.851 14.1066 211.69 13.8807 211.69 13.5974C211.69 13.4074 211.762 13.2388 211.909 13.1062C212.221 12.8157 212.855 12.6759 213.845 12.6723V12.64C213.845 12.1416 213.605 11.9085 213.092 11.9085C212.873 11.9085 212.676 11.9515 212.511 12.0412C212.328 12.138 212.224 12.2671 212.199 12.432C212.192 12.4715 212.163 12.5038 212.124 12.5145H212.106C212.052 12.5324 211.995 12.5073 211.977 12.4571L211.808 12.0089C211.79 11.9587 211.815 11.9013 211.869 11.8834C212.321 11.7113 212.755 11.6216 213.157 11.6216C213.662 11.6216 214.024 11.7507 214.236 12.0053C214.394 12.1954 214.473 12.4822 214.473 12.8516C214.473 12.9233 214.462 13.1241 214.44 13.4719C214.426 13.6942 214.43 13.8556 214.455 13.956C214.494 14.1102 214.577 14.1496 214.638 14.1676C214.684 14.1819 214.713 14.2178 214.713 14.2644V14.2787C214.713 14.3325 214.666 14.3791 214.605 14.3791H214.114C214.067 14.3791 214.028 14.354 214.014 14.3146C213.988 14.2465 213.96 14.1604 213.931 14.0492C213.709 14.311 213.397 14.4437 212.999 14.4437L213.002 14.4401ZM214.193 14.1747H214.322C214.293 14.1281 214.265 14.0708 214.25 14.0026C214.218 13.8843 214.211 13.705 214.229 13.4576C214.25 13.1205 214.261 12.9161 214.261 12.8516C214.261 12.5289 214.196 12.285 214.067 12.1272C214.003 12.0484 213.917 11.9838 213.809 11.9336C213.978 12.0914 214.064 12.3245 214.064 12.6364V12.7691C214.064 12.7691 214.064 12.7942 214.057 12.805C214.06 12.8157 214.064 12.8301 214.064 12.8408V13.1241C214.064 13.3428 214.042 13.5257 213.999 13.6799C214.046 13.6871 214.082 13.7193 214.089 13.7588C214.125 13.9345 214.161 14.0708 214.193 14.1676V14.1747ZM213.737 12.9448C212.371 12.9448 212.371 13.4361 212.371 13.5974C212.371 13.7731 212.432 13.9058 212.554 14.0062C212.676 14.1066 212.83 14.1568 213.027 14.1568C213.347 14.1568 213.562 14.06 213.691 13.8664C213.795 13.705 213.849 13.4576 213.849 13.1277V12.9448H213.737ZM212.421 13.0452C212.267 13.099 212.145 13.1671 212.059 13.246C211.955 13.3428 211.905 13.4576 211.905 13.5938C211.905 13.8018 212.023 13.9596 212.264 14.0815C212.303 14.0994 212.343 14.1174 212.382 14.1353C212.231 13.999 212.156 13.8197 212.156 13.601C212.156 13.3715 212.246 13.1851 212.418 13.0488L212.421 13.0452ZM212.045 12.0304L212.084 12.138C212.127 12.0735 212.178 12.0161 212.246 11.9623C212.181 11.9838 212.113 12.0053 212.045 12.0268V12.0304Z" fill="#00B451"/>
<path d="M217.155 14.2823V14.268C217.33 14.2214 217.42 14.0421 217.42 13.7265V12.891C217.42 12.2025 217.13 11.8547 216.545 11.8547C216.161 11.8547 215.896 12.0627 215.753 12.4751C215.667 12.7225 215.624 13.0739 215.62 13.5293C215.62 13.9596 215.713 14.2034 215.903 14.2644V14.2787H215V14.2716C215.19 14.2214 215.283 13.9668 215.283 13.5114C215.283 13.454 215.283 13.3643 215.29 13.246C215.294 13.1277 215.297 13.038 215.297 12.9807C215.297 12.346 215.204 12.0125 215.018 11.9766V11.9623C215.265 11.9085 215.462 11.8475 215.616 11.7794C215.599 12.0197 215.588 12.2599 215.584 12.5002C215.796 11.9766 216.161 11.7149 216.685 11.7149C217.14 11.7149 217.452 11.8583 217.621 12.1452C217.739 12.346 217.797 12.6544 217.797 13.0703C217.797 13.1205 217.797 13.1994 217.797 13.2998C217.797 13.4038 217.797 13.4791 217.797 13.5293C217.797 13.748 217.815 13.9094 217.847 14.0134C217.893 14.1532 217.976 14.2321 218.094 14.2608V14.2751C217.886 14.268 217.703 14.268 217.549 14.268C217.395 14.268 217.262 14.268 217.162 14.2751L217.155 14.2823Z" fill="#00B451"/>
<path d="M217.155 14.3827C217.108 14.3827 217.069 14.354 217.054 14.3146V14.3002C217.04 14.2751 217.044 14.2465 217.054 14.2214C217.065 14.1963 217.09 14.1783 217.119 14.1712C217.244 14.1389 217.309 13.9883 217.309 13.7265V12.891C217.309 12.0555 216.871 11.9587 216.542 11.9587C216.212 11.9587 215.979 12.138 215.853 12.5109C215.771 12.7476 215.731 13.0918 215.728 13.5365C215.728 13.9058 215.803 14.1317 215.939 14.1747C215.982 14.1891 216.014 14.2285 216.014 14.2716V14.2859C216.014 14.3397 215.968 14.3863 215.907 14.3863H215.003C214.942 14.3863 214.896 14.3397 214.896 14.2859C214.896 14.2429 214.928 14.1927 214.975 14.1819C215.107 14.1461 215.183 13.9094 215.183 13.5185C215.183 13.4576 215.183 13.3679 215.19 13.2496C215.193 13.1313 215.197 13.0452 215.197 12.9878C215.197 12.1631 215.036 12.0878 215.003 12.0806C214.953 12.0699 214.917 12.0304 214.917 11.9838V11.9695C214.917 11.9229 214.953 11.8834 215 11.8726C215.236 11.8224 215.434 11.7615 215.577 11.6969C215.613 11.6826 215.652 11.6862 215.685 11.7041C215.717 11.7256 215.735 11.7579 215.731 11.7938C215.724 11.887 215.72 11.9838 215.713 12.077C215.95 11.7758 216.276 11.6252 216.689 11.6252C217.183 11.6252 217.531 11.7866 217.718 12.1057C217.847 12.3245 217.908 12.6436 217.908 13.0811C217.908 13.1349 217.908 13.2102 217.908 13.3141C217.908 13.4145 217.908 13.4899 217.908 13.5436C217.908 13.7516 217.922 13.9058 217.954 13.999C218.001 14.1353 218.073 14.1676 218.123 14.1783C218.173 14.1891 218.205 14.2285 218.205 14.2751V14.2895C218.205 14.3182 218.195 14.3433 218.173 14.3612C218.152 14.3791 218.127 14.3899 218.094 14.3899C217.678 14.3791 217.366 14.3791 217.169 14.3899C217.169 14.3899 217.166 14.3899 217.162 14.3899L217.155 14.3827ZM215.269 14.1819H215.642C215.555 14.0421 215.512 13.8269 215.512 13.5365C215.512 13.16 215.545 12.848 215.606 12.6042C215.595 12.6042 215.581 12.6042 215.566 12.6042C215.516 12.5934 215.48 12.554 215.48 12.5038C215.484 12.3173 215.491 12.1272 215.502 11.9408C215.423 11.9695 215.337 11.9946 215.24 12.0197C215.355 12.1846 215.405 12.4966 215.405 12.9843C215.405 13.0452 215.405 13.1349 215.398 13.2532C215.394 13.3715 215.391 13.4576 215.391 13.515C215.391 13.8162 215.348 14.0385 215.265 14.1819H215.269ZM217.546 14.1747C217.624 14.1747 217.707 14.1747 217.797 14.1747C217.775 14.1389 217.757 14.0994 217.739 14.0528C217.7 13.9381 217.682 13.7695 217.682 13.5401C217.682 13.4863 217.682 13.411 217.682 13.307C217.682 13.2066 217.682 13.1277 217.682 13.0775C217.682 12.6795 217.628 12.3854 217.517 12.199C217.413 12.0197 217.244 11.9049 217.008 11.8547C217.291 11.9874 217.517 12.285 217.517 12.8946V13.7301C217.517 13.9201 217.485 14.0672 217.424 14.1747C217.46 14.1747 217.495 14.1747 217.535 14.1747H217.546Z" fill="#00B451"/>
<path d="M221.888 14.3827L219.034 11.4997V13.4217C219.034 13.8879 219.174 14.1712 219.45 14.2716L218.485 14.2751C218.679 14.2393 218.808 14.0923 218.872 13.8341C218.908 13.6871 218.93 13.4791 218.93 13.2102V11.6718C218.93 11.4352 218.811 11.281 218.571 11.2129V11.1878C218.707 11.1949 218.844 11.1985 218.98 11.1985C219.116 11.1985 219.252 11.1985 219.389 11.1878L221.788 13.6297C221.788 13.5544 221.791 13.4253 221.798 13.2388C221.809 13.0058 221.813 12.8301 221.813 12.7117C221.813 11.8117 221.662 11.3061 221.364 11.1985V11.1878C221.515 11.1985 221.659 11.2021 221.802 11.2021C221.974 11.2021 222.139 11.1985 222.304 11.1878V11.2021C222.146 11.2523 222.039 11.3276 221.985 11.4352C221.931 11.5428 221.902 11.8691 221.892 12.4177C221.892 12.5791 221.892 12.7799 221.892 13.0237V14.3863L221.888 14.3827Z" fill="#E52423"/>
<path d="M221.888 14.4831C221.859 14.4831 221.831 14.4724 221.809 14.4508L219.141 11.7543V13.4181C219.141 13.8377 219.256 14.0923 219.486 14.1747C219.529 14.1891 219.554 14.2285 219.554 14.268C219.554 14.3218 219.507 14.372 219.446 14.372H218.481C218.428 14.372 218.381 14.3325 218.374 14.2823C218.37 14.2321 218.406 14.1855 218.46 14.1747C218.611 14.1496 218.707 14.0277 218.765 13.809C218.801 13.6691 218.819 13.4683 218.819 13.2066V11.6683C218.819 11.4746 218.729 11.3599 218.535 11.3061C218.489 11.2917 218.46 11.2559 218.46 11.2093V11.1842C218.46 11.1555 218.471 11.1304 218.492 11.1125C218.514 11.0945 218.542 11.0838 218.571 11.0838C218.833 11.0981 219.113 11.0981 219.374 11.0838C219.407 11.0838 219.439 11.0945 219.46 11.116L221.676 13.3751C221.676 13.3321 221.676 13.2819 221.684 13.2317C221.694 13.0022 221.698 12.8229 221.698 12.7081C221.698 11.6503 221.49 11.3527 221.318 11.2882C221.275 11.2738 221.25 11.2344 221.25 11.1949V11.1842C221.25 11.1555 221.26 11.1304 221.286 11.1089C221.307 11.0909 221.336 11.0802 221.368 11.0838C221.687 11.1053 222.003 11.1017 222.293 11.0838C222.34 11.0838 222.39 11.1089 222.404 11.1555V11.1698C222.426 11.2236 222.394 11.2774 222.34 11.2953C222.207 11.3348 222.121 11.3957 222.082 11.4746C222.057 11.5284 222.01 11.7185 221.999 12.4177C221.999 12.5791 221.999 12.7799 221.999 13.0201V14.3827C221.999 14.4257 221.97 14.4616 221.931 14.4759C221.917 14.4795 221.906 14.4831 221.892 14.4831H221.888ZM218.829 14.1747H219.134C219.062 14.0887 219.009 13.9811 218.976 13.852C218.944 13.9811 218.894 14.0887 218.833 14.1712L218.829 14.1747ZM219.034 11.3993C219.062 11.3993 219.091 11.4101 219.113 11.4316L221.78 14.1281V13.7301C221.752 13.7301 221.723 13.7193 221.702 13.6978L219.338 11.2882C219.195 11.2953 219.052 11.2989 218.908 11.2953C218.937 11.3312 218.962 11.3671 218.983 11.4101C218.987 11.4101 218.991 11.4065 218.994 11.4065C219.009 11.4029 219.019 11.3993 219.034 11.3993ZM221.644 11.2989C221.716 11.3993 221.773 11.532 221.816 11.6969C221.838 11.5105 221.863 11.4316 221.881 11.3922C221.895 11.3599 221.917 11.3276 221.942 11.2989C221.845 11.2989 221.745 11.2989 221.644 11.2989Z" fill="#E52423"/>
<path d="M224.19 14.3397H224.194C223.781 14.3397 223.433 14.2178 223.154 13.9703C222.863 13.7193 222.72 13.4074 222.72 13.0345C222.72 12.6615 222.86 12.3675 223.143 12.1129C223.426 11.8547 223.76 11.7292 224.151 11.7292C224.477 11.7292 224.778 11.8153 225.054 11.991C225.352 12.181 225.52 12.4177 225.553 12.7046H223.208C223.182 12.8767 223.172 12.9843 223.172 13.0345C223.172 13.3536 223.261 13.6261 223.437 13.8484C223.634 14.0959 223.9 14.2214 224.24 14.2214C224.868 14.2214 225.291 13.9166 225.513 13.307L225.592 13.3679C225.528 13.662 225.359 13.8986 225.083 14.0779C224.821 14.25 224.524 14.3361 224.187 14.3361L224.19 14.3397ZM224.158 11.8153C223.674 11.8153 223.365 12.0842 223.233 12.6257H225.061C225.061 12.3854 224.975 12.1918 224.807 12.0412C224.638 11.8906 224.423 11.8153 224.158 11.8153Z" fill="#E52423"/>
<path d="M224.194 14.4401H224.187C223.753 14.4401 223.38 14.3074 223.078 14.0457C222.767 13.7767 222.612 13.4361 222.612 13.0345C222.612 12.6328 222.767 12.3137 223.068 12.0412C223.369 11.7651 223.735 11.6288 224.151 11.6288C224.498 11.6288 224.821 11.722 225.115 11.9085C225.438 12.1165 225.624 12.3782 225.66 12.6938C225.66 12.7225 225.653 12.7512 225.635 12.7727C225.614 12.7942 225.585 12.805 225.556 12.805H223.308C223.29 12.9484 223.286 13.0094 223.286 13.0345C223.286 13.3321 223.369 13.5867 223.53 13.7911C223.706 14.0134 223.943 14.1245 224.247 14.1245C224.828 14.1245 225.212 13.8484 225.416 13.2783C225.427 13.246 225.456 13.2209 225.488 13.2137C225.52 13.2066 225.56 13.2137 225.585 13.2353L225.664 13.2962C225.693 13.3213 225.707 13.3572 225.7 13.393C225.632 13.7122 225.445 13.9703 225.148 14.1676C224.871 14.3504 224.552 14.4401 224.197 14.4437L224.194 14.4401ZM223.38 12.0555C223.326 12.095 223.272 12.1344 223.218 12.1846C222.957 12.4249 222.827 12.701 222.827 13.0345C222.827 13.3679 222.957 13.6656 223.226 13.8986C223.329 13.9883 223.441 14.06 223.563 14.1138C223.487 14.0564 223.419 13.9883 223.355 13.9094C223.165 13.6691 223.071 13.3751 223.071 13.0345C223.071 12.9807 223.082 12.8695 223.107 12.6902C223.107 12.6723 223.118 12.6579 223.129 12.6436C223.129 12.6293 223.129 12.6149 223.129 12.6006C223.182 12.3747 223.269 12.1954 223.38 12.0555ZM225.165 12.6042H225.427C225.37 12.3962 225.23 12.2205 224.997 12.0735C224.986 12.0663 224.975 12.0591 224.968 12.0555C225.097 12.2061 225.165 12.389 225.169 12.6042H225.165ZM223.369 12.5253H224.943C224.925 12.3603 224.853 12.2241 224.728 12.1129C224.577 11.9802 224.391 11.9157 224.154 11.9157C223.76 11.9157 223.502 12.1165 223.369 12.5253Z" fill="#E52423"/>
<path d="M227.213 12.0125H226.715C226.715 12.1488 226.715 12.3531 226.704 12.6257C226.697 12.8982 226.693 13.1026 226.693 13.2388C226.693 13.4934 226.711 13.6907 226.743 13.8269C226.804 14.0672 226.922 14.2142 227.098 14.2716V14.2859H226.532L226.377 14.1891V14.1963C226.377 14.1963 226.377 14.1927 226.377 14.1819L226.36 14.1425L226.324 14.06C226.313 14.0385 226.306 13.9166 226.295 13.6942C226.295 13.7695 226.295 13.8126 226.299 13.8269C226.316 13.0201 226.327 12.4141 226.327 12.0089H225.918L225.933 11.93C226.281 11.826 226.532 11.575 226.686 11.1734H226.718C226.718 11.2487 226.718 11.4926 226.707 11.8977H227.245L227.202 12.0161L227.213 12.0125Z" fill="#E52423"/>
<path d="M227.102 14.3827H226.535C226.514 14.3827 226.492 14.3755 226.474 14.3648L226.349 14.2859C226.327 14.2751 226.306 14.2572 226.291 14.2393C226.291 14.2393 226.284 14.2285 226.284 14.2214L226.23 14.0994C226.223 14.0815 226.212 14.06 226.202 13.8484C226.198 13.8341 226.195 13.8054 226.195 13.6942C226.195 13.6799 226.195 13.6656 226.202 13.6548C226.216 12.9986 226.223 12.4787 226.227 12.1093H225.926C225.893 12.1093 225.865 12.095 225.843 12.0735C225.822 12.0519 225.814 12.0197 225.818 11.991L225.832 11.9121C225.84 11.8762 225.868 11.844 225.908 11.8332C226.227 11.74 226.449 11.5141 226.593 11.1376C226.607 11.1017 226.639 11.0766 226.679 11.073H226.711C226.743 11.0658 226.772 11.073 226.797 11.0909C226.822 11.1089 226.833 11.1376 226.833 11.1662C226.833 11.2415 226.833 11.4495 226.826 11.7973H227.256C227.292 11.7973 227.324 11.8117 227.342 11.8404C227.364 11.8655 227.367 11.9013 227.356 11.93L227.313 12.0484C227.299 12.0878 227.256 12.1165 227.213 12.1165H226.822C226.822 12.2456 226.818 12.4141 226.811 12.6293C226.804 12.8982 226.801 13.1062 226.801 13.2388C226.801 13.4863 226.818 13.6727 226.851 13.8018C226.905 14.0062 226.998 14.1317 227.134 14.1747C227.177 14.1891 227.206 14.2285 227.206 14.268V14.2823C227.206 14.3361 227.159 14.3827 227.098 14.3827H227.102ZM226.571 14.1819H226.804C226.732 14.0959 226.682 13.9847 226.646 13.8484C226.611 13.705 226.593 13.5042 226.593 13.2388C226.593 13.1026 226.593 12.8982 226.603 12.6257C226.611 12.3531 226.614 12.1488 226.614 12.0161C226.614 11.9946 226.621 11.9731 226.636 11.9551C226.621 11.9372 226.614 11.9157 226.614 11.8942C226.614 11.7615 226.618 11.6467 226.621 11.5499C226.517 11.7005 226.392 11.8189 226.248 11.9049H226.342C226.403 11.9049 226.449 11.9515 226.449 12.0053C226.449 12.4069 226.438 13.0094 226.42 13.8018C226.431 13.9811 226.435 14.0206 226.438 14.0277L226.478 14.121L226.575 14.1819H226.571Z" fill="#E52423"/>
<path d="M212.812 10.0152H213.06V10.1873H210.528C210.223 10.1873 209.994 10.1586 209.84 10.0977C209.646 10.026 209.531 9.90763 209.499 9.7391C209.492 9.70324 209.488 9.67096 209.488 9.63511C209.488 9.46299 209.574 9.3088 209.75 9.16537C209.958 8.99325 210.209 8.8785 210.503 8.81754C210.654 8.78527 210.804 8.77093 210.955 8.77451C211.109 8.77451 211.249 8.79603 211.382 8.83188L211.335 9.26935H211.303C211.242 9.11516 211.141 9.004 211.001 8.93946C210.912 8.90002 210.815 8.88209 210.711 8.88209C210.646 8.88209 210.582 8.88926 210.514 8.9036C210.352 8.93587 210.216 9.004 210.112 9.10441C209.997 9.21557 209.933 9.35183 209.922 9.51319C209.922 9.53112 209.922 9.54905 209.922 9.56698C209.922 9.68172 209.954 9.77137 210.019 9.82874C210.098 9.89687 210.166 9.9399 210.231 9.95424C210.392 9.99727 210.586 10.0188 210.804 10.0188H212.421V8.98966C212.421 8.86416 212.414 8.78168 212.4 8.74224C212.375 8.66335 212.314 8.62391 212.221 8.61674V8.58805C212.457 8.55578 212.662 8.51275 212.834 8.45537C212.819 8.67411 212.812 8.90002 212.812 9.13668V10.0188V10.0152ZM210.783 7.98922C210.783 7.92109 210.804 7.86372 210.851 7.81351C210.898 7.7669 210.955 7.7418 211.019 7.7418C211.084 7.7418 211.145 7.76331 211.192 7.80993C211.238 7.85654 211.26 7.91392 211.26 7.98563C211.26 8.05735 211.238 8.11114 211.192 8.15775C211.145 8.20437 211.088 8.22588 211.019 8.22588C210.951 8.22588 210.894 8.20437 210.847 8.15775C210.801 8.11472 210.779 8.05735 210.779 7.98563L210.783 7.98922ZM211.389 7.98922C211.389 7.92109 211.414 7.86372 211.457 7.81351C211.504 7.7669 211.561 7.7418 211.625 7.7418C211.69 7.7418 211.751 7.76331 211.798 7.80993C211.844 7.85654 211.866 7.91392 211.866 7.98563C211.866 8.05735 211.841 8.11114 211.798 8.15775C211.751 8.20437 211.694 8.22588 211.625 8.22588C211.557 8.22588 211.5 8.20437 211.453 8.15775C211.407 8.11472 211.385 8.05735 211.385 7.98563L211.389 7.98922Z" fill="#E52423"/>
<path d="M213.612 10.1873H213.002V10.0152H213.612V10.1873Z" fill="#E52423"/>
<path d="M213.558 10.0152H214.415C214.347 9.94349 214.304 9.86818 214.286 9.78571C214.275 9.73192 214.268 9.63152 214.268 9.4845V8.98607C214.268 8.86057 214.261 8.7781 214.247 8.73865C214.222 8.65977 214.161 8.62032 214.067 8.61315V8.58446C214.304 8.55219 214.508 8.50916 214.684 8.45179C214.67 8.67052 214.663 8.89643 214.663 9.13309V9.41996C214.663 9.65304 214.666 9.79647 214.677 9.85026C214.706 10.026 214.777 10.1335 214.899 10.173V10.1909H213.562V10.0188L213.558 10.0152ZM213.655 7.98922C213.655 7.92109 213.676 7.86372 213.723 7.81351C213.77 7.7669 213.827 7.7418 213.895 7.7418C213.963 7.7418 214.021 7.76331 214.067 7.80993C214.114 7.85654 214.135 7.91392 214.135 7.98563C214.135 8.05735 214.114 8.11114 214.067 8.15775C214.021 8.20437 213.963 8.22588 213.895 8.22588C213.827 8.22588 213.77 8.20437 213.723 8.15775C213.676 8.11472 213.655 8.05735 213.655 7.98563V7.98922Z" fill="#E52423"/>
<path d="M216.646 10.632C216.405 10.632 216.23 10.6033 216.115 10.5459C216.04 10.5065 215.95 10.4204 215.842 10.2877C215.656 10.0618 215.566 9.78571 215.573 9.4594C215.573 9.39844 215.573 9.34466 215.573 9.29804C215.573 9.07213 215.563 8.94305 215.538 8.90719C215.509 8.86416 215.462 8.83189 215.398 8.81396V8.78527C215.523 8.79603 215.645 8.79961 215.763 8.79961C215.853 8.79961 215.957 8.79603 216.083 8.78527V8.81396C216.011 8.83189 215.957 8.8785 215.925 8.95739C215.903 9.01476 215.889 9.09724 215.885 9.20122C215.885 9.2837 215.885 9.36617 215.889 9.44506C215.882 9.72475 215.943 9.97217 216.068 10.1873C216.212 10.4312 216.405 10.5495 216.646 10.5495C216.886 10.5495 217.079 10.4276 217.223 10.1873C217.348 9.97217 217.409 9.72475 217.402 9.44506C217.402 9.36259 217.402 9.28011 217.402 9.20122C217.402 9.09724 217.388 9.01476 217.363 8.95739C217.33 8.8785 217.277 8.83189 217.201 8.81396V8.78527C217.327 8.79603 217.438 8.79961 217.538 8.79961C217.657 8.79961 217.779 8.79603 217.901 8.78527V8.81396C217.836 8.83189 217.789 8.86416 217.761 8.90719C217.739 8.94305 217.725 9.07213 217.725 9.29804V9.4594C217.732 9.8144 217.632 10.1013 217.424 10.3164C217.223 10.5244 216.961 10.6284 216.638 10.6284L216.646 10.632ZM216.441 8.33346C216.441 8.26533 216.463 8.20795 216.506 8.15775C216.549 8.11114 216.603 8.08604 216.667 8.08604C216.732 8.08604 216.782 8.10755 216.825 8.15417C216.868 8.20078 216.889 8.25816 216.889 8.32987C216.889 8.40159 216.868 8.45538 216.825 8.50199C216.782 8.54861 216.728 8.57012 216.667 8.57012C216.606 8.57012 216.549 8.54861 216.506 8.50199C216.463 8.45896 216.441 8.40159 216.441 8.32987V8.33346Z" fill="#00B451"/>
<path d="M218.202 10.1873V10.1694C218.306 10.1371 218.37 10.0403 218.395 9.88253C218.403 9.83233 218.41 9.70324 218.41 9.49167V7.70235C218.41 7.58044 218.403 7.50155 218.392 7.4621C218.37 7.3868 218.317 7.34736 218.23 7.34019V7.3115C218.378 7.29716 218.542 7.25413 218.725 7.17883C218.715 7.37246 218.707 7.59837 218.711 7.85296V10.0044H218.98V10.1766H218.205L218.202 10.1873Z" fill="#00B451"/>
<path d="M219.912 10.1873H218.93V10.0152H219.912V10.1873Z" fill="#00B451"/>
<path d="M221.626 10.0152H221.942V10.1873H221.533C221.512 10.2196 221.486 10.2483 221.458 10.277C221.307 10.4347 221.106 10.5172 220.859 10.5172C220.611 10.5172 220.421 10.4383 220.274 10.277C220.249 10.2483 220.224 10.2196 220.203 10.1873H219.772V10.0152H220.113C220.07 9.90404 220.052 9.78213 220.052 9.64945C220.052 9.39486 220.131 9.18688 220.292 9.02911C220.443 8.88209 220.637 8.80679 220.873 8.80679C221.11 8.80679 221.304 8.88209 221.454 9.03628C221.608 9.19405 221.687 9.40203 221.687 9.66379C221.687 9.79288 221.669 9.91122 221.63 10.0152H221.626ZM220.396 9.65662C220.396 9.87536 220.429 10.0511 220.49 10.1873C220.572 10.3666 220.701 10.4563 220.877 10.4563C221.053 10.4563 221.178 10.3666 221.257 10.1873C221.318 10.0511 221.35 9.87536 221.35 9.65662C221.35 9.43789 221.318 9.26218 221.257 9.12951C221.174 8.9538 221.045 8.86416 220.866 8.86416C220.687 8.86416 220.568 8.9538 220.49 9.13309C220.425 9.27294 220.396 9.44865 220.396 9.65662Z" fill="#00B451"/>
<path d="M222.128 10.1873H221.565V10.0152H222.128V10.1873Z" fill="#00B451"/>
<path d="M222.645 10.1873H222.082V10.0152H222.645V10.1873Z" fill="#00B451"/>
<path d="M222.594 10.1873V10.0152H223.172C222.946 9.86101 222.835 9.63152 222.835 9.32314C222.835 9.06138 222.914 8.8534 223.071 8.69921C223.222 8.54861 223.416 8.4733 223.656 8.4733C223.882 8.4733 224.075 8.53426 224.244 8.65977L224.172 9.13668H224.151C224.061 8.76376 223.907 8.58088 223.692 8.58088C223.53 8.58088 223.394 8.66335 223.279 8.82471C223.175 8.97532 223.125 9.14027 223.125 9.32673C223.125 9.57415 223.229 9.80364 223.434 10.0188H224.169C224.226 10.0188 224.283 9.98293 224.341 9.91121C224.323 10.0977 224.262 10.1909 224.151 10.1909H222.598L222.594 10.1873Z" fill="#00B451"/>
<path d="M203.507 10.7252C204.45 10.7252 205.214 11.4137 205.214 12.2635C205.214 13.1133 204.447 13.8018 203.507 13.8018C202.568 13.8018 201.8 13.1133 201.8 12.2635C201.8 11.4137 202.568 10.7252 203.507 10.7252ZM203.507 10.1873C202.266 10.1873 201.262 11.116 201.262 12.2635C201.262 13.411 202.266 14.3397 203.507 14.3397C204.748 14.3397 205.752 13.411 205.752 12.2635C205.752 11.116 204.748 10.1873 203.507 10.1873Z" fill="#00B451"/>
<path fill-rule="evenodd" clip-rule="evenodd" d="M203.507 10.2617C202.303 10.2617 201.337 11.1633 201.337 12.2635C201.337 13.3637 202.303 14.2653 203.507 14.2653C204.711 14.2653 205.677 13.3637 205.677 12.2635C205.677 11.1633 204.711 10.2617 203.507 10.2617ZM201.188 12.2635C201.188 11.0704 202.232 10.1129 203.507 10.1129C204.782 10.1129 205.826 11.0704 205.826 12.2635C205.826 13.4566 204.782 14.4141 203.507 14.4141C202.232 14.4141 201.188 13.4566 201.188 12.2635Z" fill="#E52423"/>
<path fill-rule="evenodd" clip-rule="evenodd" d="M204.598 14.0563C204.638 14.0368 204.685 14.0532 204.705 14.0929L206.222 17.1875C206.241 17.2271 206.225 17.2751 206.185 17.2945C206.145 17.314 206.097 17.2976 206.078 17.2579L204.561 14.1633C204.542 14.1237 204.558 14.0757 204.598 14.0563Z" fill="#E52423"/>
<path fill-rule="evenodd" clip-rule="evenodd" d="M201.812 13.5112C201.834 13.5495 201.821 13.5984 201.783 13.6203L199.929 14.6781C199.89 14.7 199.841 14.6866 199.82 14.6483C199.798 14.6099 199.811 14.561 199.849 14.5391L201.703 13.4813C201.742 13.4594 201.791 13.4728 201.812 13.5112Z" fill="#E52423"/>
<path fill-rule="evenodd" clip-rule="evenodd" d="M200.378 9.43168C200.407 9.3985 200.457 9.39525 200.49 9.42442L201.796 10.5719C201.829 10.6011 201.832 10.6516 201.803 10.6848C201.774 10.718 201.723 10.7212 201.69 10.692L200.385 9.54459C200.352 9.51542 200.348 9.46487 200.378 9.43168Z" fill="#E52423"/>
<path fill-rule="evenodd" clip-rule="evenodd" d="M204.318 8.25066C204.362 8.25683 204.392 8.2973 204.386 8.34105L204.142 10.0694C204.136 10.1132 204.096 10.1436 204.052 10.1374C204.008 10.1313 203.978 10.0908 203.984 10.0471L204.228 8.3187C204.234 8.27495 204.274 8.24448 204.318 8.25066Z" fill="#E52423"/>
<path d="M204.307 8.7028C204.57 8.7028 204.784 8.48927 204.784 8.22588C204.784 7.96249 204.57 7.74897 204.307 7.74897C204.043 7.74897 203.83 7.96249 203.83 8.22588C203.83 8.48927 204.043 8.7028 204.307 8.7028Z" fill="url(#paint6_radial_0_970)"/>
<path d="M200.258 9.74627C200.522 9.74627 200.735 9.53275 200.735 9.26936C200.735 9.00596 200.522 8.79244 200.258 8.79244C199.995 8.79244 199.781 9.00596 199.781 9.26936C199.781 9.53275 199.995 9.74627 200.258 9.74627Z" fill="url(#paint7_radial_0_970)"/>
<path d="M199.645 15.2361C199.909 15.2361 200.122 15.0226 200.122 14.7592C200.122 14.4958 199.909 14.2823 199.645 14.2823C199.382 14.2823 199.168 14.4958 199.168 14.7592C199.168 15.0226 199.382 15.2361 199.645 15.2361Z" fill="url(#paint8_radial_0_970)"/>
<path d="M206.408 18.0187C206.671 18.0187 206.885 17.8052 206.885 17.5418C206.885 17.2784 206.671 17.0649 206.408 17.0649C206.145 17.0649 205.931 17.2784 205.931 17.5418C205.931 17.8052 206.145 18.0187 206.408 18.0187Z" fill="url(#paint9_radial_0_970)"/>
<path d="M204.242 12.0161H202.7V12.2635H204.242V12.0161Z" fill="#E52423"/>
<path d="M202.736 11.3348C203.002 11.679 203.285 12.0089 203.59 12.3209C203.744 12.4751 203.902 12.6221 204.07 12.7512C204.239 12.8767 204.425 12.9986 204.604 13.0201H204.615C204.665 13.0273 204.698 13.0739 204.694 13.1205C204.687 13.1707 204.644 13.203 204.594 13.1994C204.594 13.1994 204.594 13.1994 204.59 13.1994C204.332 13.1564 204.149 13.0129 203.973 12.8731C203.801 12.7297 203.643 12.5719 203.493 12.4141C203.195 12.0878 202.919 11.7471 202.664 11.3886C202.65 11.367 202.654 11.3384 202.675 11.324C202.697 11.3097 202.725 11.3133 202.74 11.3348H202.736Z" fill="#E52423"/>
<path d="M204.429 11.3312C204.171 11.6898 203.898 12.0304 203.6 12.3567C203.45 12.5181 203.292 12.6723 203.12 12.8157C202.944 12.952 202.761 13.0954 202.503 13.142C202.453 13.1492 202.406 13.1169 202.399 13.0703C202.392 13.0201 202.424 12.9735 202.471 12.9663H202.482C202.661 12.9412 202.851 12.8229 203.016 12.6974C203.184 12.5647 203.342 12.4177 203.496 12.2671C203.801 11.9587 204.084 11.6252 204.35 11.281C204.364 11.2595 204.393 11.2559 204.414 11.2702C204.436 11.2846 204.439 11.3133 204.425 11.3348L204.429 11.3312Z" fill="#E52423"/>
<path fill-rule="evenodd" clip-rule="evenodd" d="M203.315 11.471C203.315 11.4578 203.325 11.447 203.339 11.447H203.586C203.599 11.447 203.61 11.4578 203.61 11.471C203.61 11.4843 203.599 11.495 203.586 11.495H203.339C203.325 11.495 203.315 11.4843 203.315 11.471Z" fill="#E52423"/>
<path fill-rule="evenodd" clip-rule="evenodd" d="M203.471 11.5243C203.493 11.5243 203.511 11.5422 203.511 11.5643V12.2778C203.511 12.3896 203.422 12.4792 203.31 12.4792H202.959C202.936 12.4792 202.919 12.4613 202.919 12.4392C202.919 12.4171 202.936 12.3992 202.959 12.3992H203.31C203.377 12.3992 203.431 12.3454 203.431 12.2778V11.5643C203.431 11.5422 203.449 11.5243 203.471 11.5243Z" fill="#E52423"/>
</g>
<defs>
<linearGradient id="paint0_linear_0_970" x1="157.643" y1="11.4233" x2="167.226" y2="4.11793" gradientUnits="userSpaceOnUse">
<stop offset="0.12" stop-color="#9F2F7F"/>
<stop offset="0.47" stop-color="#EA212F"/>
<stop offset="0.54" stop-color="#EA2732"/>
<stop offset="0.64" stop-color="#EC393A"/>
<stop offset="0.76" stop-color="#EF5849"/>
<stop offset="0.88" stop-color="#F3815C"/>
<stop offset="1" stop-color="#F8AF72"/>
</linearGradient>
<linearGradient id="paint1_linear_0_970" x1="161.015" y1="15.8238" x2="170.567" y2="8.54241" gradientUnits="userSpaceOnUse">
<stop offset="0.12" stop-color="#9F2F7F"/>
<stop offset="0.47" stop-color="#EA212F"/>
<stop offset="0.54" stop-color="#EA2732"/>
<stop offset="0.64" stop-color="#EC393A"/>
<stop offset="0.76" stop-color="#EF5849"/>
<stop offset="0.88" stop-color="#F3815C"/>
<stop offset="1" stop-color="#F8AF72"/>
</linearGradient>
<radialGradient id="paint2_radial_0_970" cx="0" cy="0" r="1" gradientUnits="userSpaceOnUse" gradientTransform="translate(207.871 7.44776) scale(0.476913)">
<stop offset="0.1" stop-color="#84DCA6"/>
<stop offset="0.82" stop-color="#00B451"/>
</radialGradient>
<radialGradient id="paint3_radial_0_970" cx="0" cy="0" r="1" gradientUnits="userSpaceOnUse" gradientTransform="translate(202.894 16.4338) scale(0.476913)">
<stop offset="0.1" stop-color="#84DCA6"/>
<stop offset="0.82" stop-color="#00B451"/>
</radialGradient>
<radialGradient id="paint4_radial_0_970" cx="0" cy="0" r="1" gradientUnits="userSpaceOnUse" gradientTransform="translate(201.46 6.7306) scale(0.476913)">
<stop offset="0.1" stop-color="#84DCA6"/>
<stop offset="0.82" stop-color="#00B451"/>
</radialGradient>
<radialGradient id="paint5_radial_0_970" cx="0" cy="0" r="1" gradientUnits="userSpaceOnUse" gradientTransform="translate(198.835 11.9336) scale(0.179291)">
<stop offset="0.1" stop-color="#84DCA6"/>
<stop offset="0.82" stop-color="#00B451"/>
</radialGradient>
<radialGradient id="paint6_radial_0_970" cx="0" cy="0" r="1" gradientUnits="userSpaceOnUse" gradientTransform="translate(204.307 8.22588) scale(0.476913)">
<stop offset="0.1" stop-color="#F19577"/>
<stop offset="0.82" stop-color="#E52423"/>
</radialGradient>
<radialGradient id="paint7_radial_0_970" cx="0" cy="0" r="1" gradientUnits="userSpaceOnUse" gradientTransform="translate(200.258 9.26936) scale(0.476913)">
<stop offset="0.1" stop-color="#F19577"/>
<stop offset="0.82" stop-color="#E52423"/>
</radialGradient>
<radialGradient id="paint8_radial_0_970" cx="0" cy="0" r="1" gradientUnits="userSpaceOnUse" gradientTransform="translate(199.645 14.7592) scale(0.476913)">
<stop offset="0.1" stop-color="#F19577"/>
<stop offset="0.82" stop-color="#E52423"/>
</radialGradient>
<radialGradient id="paint9_radial_0_970" cx="0" cy="0" r="1" gradientUnits="userSpaceOnUse" gradientTransform="translate(206.408 17.5418) scale(0.476913)">
<stop offset="0.1" stop-color="#F19577"/>
<stop offset="0.82" stop-color="#E52423"/>
</radialGradient>
<clipPath id="clip0_0_970">
<rect width="29.002" height="11.7615" fill="white" transform="translate(198.358 6.25368)"/>
</clipPath>
</defs>
</svg>
